<svg width="271" height="77" viewBox="0 0 271 77" fill="none" xmlns="http://www.w3.org/2000/svg">
<path d="M21.7969 24.8789C21.4805 27.5859 20.4785 29.6777 18.791 31.1543C17.1152 32.6191 14.8828 33.3516 12.0938 33.3516C9.07031 33.3516 6.64453 32.2676 4.81641 30.0996C3 27.9316 2.0918 25.0312 2.0918 21.3984V18.9375C2.0918 16.5586 2.51367 14.4668 3.35742 12.6621C4.21289 10.8574 5.41992 9.47461 6.97852 8.51367C8.53711 7.54102 10.3418 7.05469 12.3926 7.05469C15.1113 7.05469 17.291 7.81641 18.9316 9.33984C20.5723 10.8516 21.5273 12.9492 21.7969 15.6328H18.4043C18.1113 13.5938 17.4727 12.1172 16.4883 11.2031C15.5156 10.2891 14.1504 9.83203 12.3926 9.83203C10.2363 9.83203 8.54297 10.6289 7.3125 12.2227C6.09375 13.8164 5.48438 16.084 5.48438 19.0254V21.5039C5.48438 24.2812 6.06445 26.4902 7.22461 28.1309C8.38477 29.7715 10.0078 30.5918 12.0938 30.5918C13.9688 30.5918 15.4043 30.1699 16.4004 29.3262C17.4082 28.4707 18.0762 26.9883 18.4043 24.8789H21.7969ZM25.0488 23.3145C25.0488 21.4512 25.4121 19.7754 26.1387 18.2871C26.877 16.7988 27.8965 15.6504 29.1973 14.8418C30.5098 14.0332 32.0039 13.6289 33.6797 13.6289C36.2695 13.6289 38.3613 14.5254 39.9551 16.3184C41.5605 18.1113 42.3633 20.4961 42.3633 23.4727V23.7012C42.3633 25.5527 42.0059 27.2168 41.291 28.6934C40.5879 30.1582 39.5742 31.3008 38.25 32.1211C36.9375 32.9414 35.4258 33.3516 33.7148 33.3516C31.1367 33.3516 29.0449 32.4551 27.4395 30.6621C25.8457 28.8691 25.0488 26.4961 25.0488 23.543V23.3145ZM28.3184 23.7012C28.3184 25.8105 28.8047 27.5039 29.7773 28.7812C30.7617 30.0586 32.0742 30.6973 33.7148 30.6973C35.3672 30.6973 36.6797 30.0527 37.6523 28.7637C38.625 27.4629 39.1113 25.6465 39.1113 23.3145C39.1113 21.2285 38.6133 19.541 37.6172 18.252C36.6328 16.9512 35.3203 16.3008 33.6797 16.3008C32.0742 16.3008 30.7793 16.9395 29.7949 18.2168C28.8105 19.4941 28.3184 21.3223 28.3184 23.7012ZM49.5176 13.9805L49.623 16.3711C51.0762 14.543 52.9746 13.6289 55.3184 13.6289C59.3379 13.6289 61.3652 15.8965 61.4004 20.4316V33H58.1484V20.4141C58.1367 19.043 57.8203 18.0293 57.1992 17.373C56.5898 16.7168 55.6348 16.3887 54.334 16.3887C53.2793 16.3887 52.3535 16.6699 51.5566 17.2324C50.7598 17.7949 50.1387 18.5332 49.6934 19.4473V33H46.4414V13.9805H49.5176ZM70.7168 9.375V13.9805H74.2676V16.4941H70.7168V28.2891C70.7168 29.0508 70.875 29.625 71.1914 30.0117C71.5078 30.3867 72.0469 30.5742 72.8086 30.5742C73.1836 30.5742 73.6992 30.5039 74.3555 30.3633V33C73.5 33.2344 72.668 33.3516 71.8594 33.3516C70.4062 33.3516 69.3105 32.9121 68.5723 32.0332C67.834 31.1543 67.4648 29.9062 67.4648 28.2891V16.4941H64.002V13.9805H67.4648V9.375H70.7168ZM89.8242 33C89.6367 32.625 89.4844 31.957 89.3672 30.9961C87.8555 32.5664 86.0508 33.3516 83.9531 33.3516C82.0781 33.3516 80.5371 32.8242 79.3301 31.7695C78.1348 30.7031 77.5371 29.3555 77.5371 27.7266C77.5371 25.7461 78.2871 24.2109 79.7871 23.1211C81.2988 22.0195 83.4199 21.4688 86.1504 21.4688H89.3145V19.9746C89.3145 18.8379 88.9746 17.9355 88.2949 17.2676C87.6152 16.5879 86.6133 16.248 85.2891 16.248C84.1289 16.248 83.1562 16.541 82.3711 17.127C81.5859 17.7129 81.1934 18.4219 81.1934 19.2539H77.9238C77.9238 18.3047 78.2578 17.3906 78.9258 16.5117C79.6055 15.6211 80.5195 14.918 81.668 14.4023C82.8281 13.8867 84.0996 13.6289 85.4824 13.6289C87.6738 13.6289 89.3906 14.1797 90.6328 15.2812C91.875 16.3711 92.5195 17.877 92.5664 19.7988V28.5527C92.5664 30.2988 92.7891 31.6875 93.2344 32.7188V33H89.8242ZM84.4277 30.5215C85.4473 30.5215 86.4141 30.2578 87.3281 29.7305C88.2422 29.2031 88.9043 28.5176 89.3145 27.6738V23.7715H86.7656C82.7812 23.7715 80.7891 24.9375 80.7891 27.2695C80.7891 28.2891 81.1289 29.0859 81.8086 29.6602C82.4883 30.2344 83.3613 30.5215 84.4277 30.5215ZM100.723 13.9805L100.811 16.0898C102.205 14.4492 104.086 13.6289 106.453 13.6289C109.113 13.6289 110.924 14.6484 111.885 16.6875C112.518 15.7734 113.338 15.0352 114.346 14.4727C115.365 13.9102 116.566 13.6289 117.949 13.6289C122.121 13.6289 124.242 15.8379 124.312 20.2559V33H121.061V20.4492C121.061 19.0898 120.75 18.0762 120.129 17.4082C119.508 16.7285 118.465 16.3887 117 16.3887C115.793 16.3887 114.791 16.752 113.994 17.4785C113.197 18.1934 112.734 19.1602 112.605 20.3789V33H109.336V20.5371C109.336 17.7715 107.982 16.3887 105.275 16.3887C103.143 16.3887 101.684 17.2969 100.898 19.1133V33H97.6465V13.9805H100.723ZM132.768 33H129.516V13.9805H132.768V33ZM129.252 8.93555C129.252 8.4082 129.41 7.96289 129.727 7.59961C130.055 7.23633 130.535 7.05469 131.168 7.05469C131.801 7.05469 132.281 7.23633 132.609 7.59961C132.938 7.96289 133.102 8.4082 133.102 8.93555C133.102 9.46289 132.938 9.90234 132.609 10.2539C132.281 10.6055 131.801 10.7812 131.168 10.7812C130.535 10.7812 130.055 10.6055 129.727 10.2539C129.41 9.90234 129.252 9.46289 129.252 8.93555ZM141.064 13.9805L141.17 16.3711C142.623 14.543 144.521 13.6289 146.865 13.6289C150.885 13.6289 152.912 15.8965 152.947 20.4316V33H149.695V20.4141C149.684 19.043 149.367 18.0293 148.746 17.373C148.137 16.7168 147.182 16.3887 145.881 16.3887C144.826 16.3887 143.9 16.6699 143.104 17.2324C142.307 17.7949 141.686 18.5332 141.24 19.4473V33H137.988V13.9805H141.064ZM169.594 33C169.406 32.625 169.254 31.957 169.137 30.9961C167.625 32.5664 165.82 33.3516 163.723 33.3516C161.848 33.3516 160.307 32.8242 159.1 31.7695C157.904 30.7031 157.307 29.3555 157.307 27.7266C157.307 25.7461 158.057 24.2109 159.557 23.1211C161.068 22.0195 163.189 21.4688 165.92 21.4688H169.084V19.9746C169.084 18.8379 168.744 17.9355 168.064 17.2676C167.385 16.5879 166.383 16.248 165.059 16.248C163.898 16.248 162.926 16.541 162.141 17.127C161.355 17.7129 160.963 18.4219 160.963 19.2539H157.693C157.693 18.3047 158.027 17.3906 158.695 16.5117C159.375 15.6211 160.289 14.918 161.438 14.4023C162.598 13.8867 163.869 13.6289 165.252 13.6289C167.443 13.6289 169.16 14.1797 170.402 15.2812C171.645 16.3711 172.289 17.877 172.336 19.7988V28.5527C172.336 30.2988 172.559 31.6875 173.004 32.7188V33H169.594ZM164.197 30.5215C165.217 30.5215 166.184 30.2578 167.098 29.7305C168.012 29.2031 168.674 28.5176 169.084 27.6738V23.7715H166.535C162.551 23.7715 160.559 24.9375 160.559 27.2695C160.559 28.2891 160.898 29.0859 161.578 29.6602C162.258 30.2344 163.131 30.5215 164.197 30.5215ZM185.062 30.6973C186.223 30.6973 187.236 30.3457 188.104 29.6426C188.971 28.9395 189.451 28.0605 189.545 27.0059H192.621C192.562 28.0957 192.188 29.1328 191.496 30.1172C190.805 31.1016 189.879 31.8867 188.719 32.4727C187.57 33.0586 186.352 33.3516 185.062 33.3516C182.473 33.3516 180.41 32.4902 178.875 30.7676C177.352 29.0332 176.59 26.666 176.59 23.666V23.1211C176.59 21.2695 176.93 19.623 177.609 18.1816C178.289 16.7402 179.262 15.6211 180.527 14.8242C181.805 14.0273 183.311 13.6289 185.045 13.6289C187.178 13.6289 188.947 14.2676 190.354 15.5449C191.771 16.8223 192.527 18.4805 192.621 20.5195H189.545C189.451 19.2891 188.982 18.2812 188.139 17.4961C187.307 16.6992 186.275 16.3008 185.045 16.3008C183.393 16.3008 182.109 16.8984 181.195 18.0938C180.293 19.2773 179.842 20.9941 179.842 23.2441V23.8594C179.842 26.0508 180.293 27.7383 181.195 28.9219C182.098 30.1055 183.387 30.6973 185.062 30.6973ZM185.59 33.1582L185.379 34.0723C187.172 34.3887 188.068 35.4023 188.068 37.1133C188.068 38.25 187.6 39.1465 186.662 39.8027C185.725 40.4707 184.418 40.8047 182.742 40.8047L182.619 38.9238C183.545 38.9238 184.26 38.7715 184.764 38.4668C185.279 38.1621 185.537 37.7344 185.537 37.1836C185.537 36.668 185.35 36.2871 184.975 36.041C184.6 35.7949 183.838 35.6191 182.689 35.5137L183.252 33.1582H185.59ZM208.02 33C207.832 32.625 207.68 31.957 207.562 30.9961C206.051 32.5664 204.246 33.3516 202.148 33.3516C200.273 33.3516 198.732 32.8242 197.525 31.7695C196.33 30.7031 195.732 29.3555 195.732 27.7266C195.732 25.7461 196.482 24.2109 197.982 23.1211C199.494 22.0195 201.615 21.4688 204.346 21.4688H207.51V19.9746C207.51 18.8379 207.17 17.9355 206.49 17.2676C205.811 16.5879 204.809 16.248 203.484 16.248C202.324 16.248 201.352 16.541 200.566 17.127C199.781 17.7129 199.389 18.4219 199.389 19.2539H196.119C196.119 18.3047 196.453 17.3906 197.121 16.5117C197.801 15.6211 198.715 14.918 199.863 14.4023C201.023 13.8867 202.295 13.6289 203.678 13.6289C205.869 13.6289 207.586 14.1797 208.828 15.2812C210.07 16.3711 210.715 17.877 210.762 19.7988V28.5527C210.762 30.2988 210.984 31.6875 211.43 32.7188V33H208.02ZM202.623 30.5215C203.643 30.5215 204.609 30.2578 205.523 29.7305C206.438 29.2031 207.1 28.5176 207.51 27.6738V23.7715H204.961C200.977 23.7715 198.984 24.9375 198.984 27.2695C198.984 28.2891 199.324 29.0859 200.004 29.6602C200.684 30.2344 201.557 30.5215 202.623 30.5215ZM210.27 6.5625C210.27 7.82812 209.906 8.85352 209.18 9.63867C208.465 10.4238 207.568 10.8164 206.49 10.8164C206.01 10.8164 205.594 10.7578 205.242 10.6406C204.891 10.5234 204.428 10.2832 203.854 9.91992C203.291 9.55664 202.881 9.33984 202.623 9.26953C202.377 9.1875 202.09 9.14648 201.762 9.14648C201.281 9.14648 200.871 9.33398 200.531 9.70898C200.191 10.0723 200.021 10.541 200.021 11.1152L197.842 10.9922C197.842 9.73828 198.193 8.70117 198.896 7.88086C199.611 7.06055 200.514 6.65039 201.604 6.65039C202.014 6.65039 202.383 6.70898 202.711 6.82617C203.039 6.94336 203.484 7.17188 204.047 7.51172C204.609 7.85156 205.037 8.07422 205.33 8.17969C205.635 8.28516 205.969 8.33789 206.332 8.33789C206.836 8.33789 207.252 8.13867 207.58 7.74023C207.92 7.3418 208.09 6.87891 208.09 6.35156L210.27 6.5625ZM214.998 23.3145C214.998 21.4512 215.361 19.7754 216.088 18.2871C216.826 16.7988 217.846 15.6504 219.146 14.8418C220.459 14.0332 221.953 13.6289 223.629 13.6289C226.219 13.6289 228.311 14.5254 229.904 16.3184C231.51 18.1113 232.312 20.4961 232.312 23.4727V23.7012C232.312 25.5527 231.955 27.2168 231.24 28.6934C230.537 30.1582 229.523 31.3008 228.199 32.1211C226.887 32.9414 225.375 33.3516 223.664 33.3516C221.086 33.3516 218.994 32.4551 217.389 30.6621C215.795 28.8691 214.998 26.4961 214.998 23.543V23.3145ZM218.268 23.7012C218.268 25.8105 218.754 27.5039 219.727 28.7812C220.711 30.0586 222.023 30.6973 223.664 30.6973C225.316 30.6973 226.629 30.0527 227.602 28.7637C228.574 27.4629 229.061 25.6465 229.061 23.3145C229.061 21.2285 228.562 19.541 227.566 18.252C226.582 16.9512 225.27 16.3008 223.629 16.3008C222.023 16.3008 220.729 16.9395 219.744 18.2168C218.76 19.4941 218.268 21.3223 218.268 23.7012Z" fill="white"/>
<path d="M80.8359 53.6328C80.5703 57.3047 79.2109 60.1953 76.7578 62.3047C74.3203 64.4141 71.1016 65.4688 67.1016 65.4688C62.7266 65.4688 59.2812 64 56.7656 61.0625C54.2656 58.1094 53.0156 54.0625 53.0156 48.9219V46.8359C53.0156 43.5547 53.5938 40.6641 54.75 38.1641C55.9062 35.6641 57.5547 33.75 59.6953 32.4219C61.8516 31.0781 64.3516 30.4062 67.1953 30.4062C71.1328 30.4062 74.3047 31.4609 76.7109 33.5703C79.1172 35.6797 80.5078 38.6406 80.8828 42.4531H73.8516C73.6797 40.25 73.0625 38.6562 72 37.6719C70.9531 36.6719 69.3516 36.1719 67.1953 36.1719C64.8516 36.1719 63.0938 37.0156 61.9219 38.7031C60.7656 40.375 60.1719 42.9766 60.1406 46.5078V49.0859C60.1406 52.7734 60.6953 55.4688 61.8047 57.1719C62.9297 58.875 64.6953 59.7266 67.1016 59.7266C69.2734 59.7266 70.8906 59.2344 71.9531 58.25C73.0312 57.25 73.6484 55.7109 73.8047 53.6328H80.8359ZM99.2578 45.9922C98.3359 45.8672 97.5234 45.8047 96.8203 45.8047C94.2578 45.8047 92.5781 46.6719 91.7812 48.4062V65H85.0078V39.6406H91.4062L91.5938 42.6641C92.9531 40.3359 94.8359 39.1719 97.2422 39.1719C97.9922 39.1719 98.6953 39.2734 99.3516 39.4766L99.2578 45.9922ZM113.742 65.4688C110.023 65.4688 106.992 64.3281 104.648 62.0469C102.32 59.7656 101.156 56.7266 101.156 52.9297V52.2734C101.156 49.7266 101.648 47.4531 102.633 45.4531C103.617 43.4375 105.008 41.8906 106.805 40.8125C108.617 39.7188 110.68 39.1719 112.992 39.1719C116.461 39.1719 119.188 40.2656 121.172 42.4531C123.172 44.6406 124.172 47.7422 124.172 51.7578V54.5234H108.023C108.242 56.1797 108.898 57.5078 109.992 58.5078C111.102 59.5078 112.5 60.0078 114.188 60.0078C116.797 60.0078 118.836 59.0625 120.305 57.1719L123.633 60.8984C122.617 62.3359 121.242 63.4609 119.508 64.2734C117.773 65.0703 115.852 65.4688 113.742 65.4688ZM112.969 44.6562C111.625 44.6562 110.531 45.1094 109.688 46.0156C108.859 46.9219 108.328 48.2188 108.094 49.9062H117.516V49.3672C117.484 47.8672 117.078 46.7109 116.297 45.8984C115.516 45.0703 114.406 44.6562 112.969 44.6562ZM141.773 57.9922C141.773 57.1641 141.359 56.5156 140.531 56.0469C139.719 55.5625 138.406 55.1328 136.594 54.7578C130.562 53.4922 127.547 50.9297 127.547 47.0703C127.547 44.8203 128.477 42.9453 130.336 41.4453C132.211 39.9297 134.656 39.1719 137.672 39.1719C140.891 39.1719 143.461 39.9297 145.383 41.4453C147.32 42.9609 148.289 44.9297 148.289 47.3516H141.516C141.516 46.3828 141.203 45.5859 140.578 44.9609C139.953 44.3203 138.977 44 137.648 44C136.508 44 135.625 44.2578 135 44.7734C134.375 45.2891 134.062 45.9453 134.062 46.7422C134.062 47.4922 134.414 48.1016 135.117 48.5703C135.836 49.0234 137.039 49.4219 138.727 49.7656C140.414 50.0938 141.836 50.4688 142.992 50.8906C146.57 52.2031 148.359 54.4766 148.359 57.7109C148.359 60.0234 147.367 61.8984 145.383 63.3359C143.398 64.7578 140.836 65.4688 137.695 65.4688C135.57 65.4688 133.68 65.0938 132.023 64.3438C130.383 63.5781 129.094 62.5391 128.156 61.2266C127.219 59.8984 126.75 58.4688 126.75 56.9375H133.172C133.234 58.1406 133.68 59.0625 134.508 59.7031C135.336 60.3438 136.445 60.6641 137.836 60.6641C139.133 60.6641 140.109 60.4219 140.766 59.9375C141.438 59.4375 141.773 58.7891 141.773 57.9922ZM163.289 60.0078C164.539 60.0078 165.555 59.6641 166.336 58.9766C167.117 58.2891 167.523 57.375 167.555 56.2344H173.906C173.891 57.9531 173.422 59.5312 172.5 60.9688C171.578 62.3906 170.312 63.5 168.703 64.2969C167.109 65.0781 165.344 65.4688 163.406 65.4688C159.781 65.4688 156.922 64.3203 154.828 62.0234C152.734 59.7109 151.688 56.5234 151.688 52.4609V52.0156C151.688 48.1094 152.727 44.9922 154.805 42.6641C156.883 40.3359 159.734 39.1719 163.359 39.1719C166.531 39.1719 169.07 40.0781 170.977 41.8906C172.898 43.6875 173.875 46.0859 173.906 49.0859H167.555C167.523 47.7734 167.117 46.7109 166.336 45.8984C165.555 45.0703 164.523 44.6562 163.242 44.6562C161.664 44.6562 160.469 45.2344 159.656 46.3906C158.859 47.5312 158.461 49.3906 158.461 51.9688V52.6719C158.461 55.2812 158.859 57.1562 159.656 58.2969C160.453 59.4375 161.664 60.0078 163.289 60.0078ZM189.445 65.4688C185.727 65.4688 182.695 64.3281 180.352 62.0469C178.023 59.7656 176.859 56.7266 176.859 52.9297V52.2734C176.859 49.7266 177.352 47.4531 178.336 45.4531C179.32 43.4375 180.711 41.8906 182.508 40.8125C184.32 39.7188 186.383 39.1719 188.695 39.1719C192.164 39.1719 194.891 40.2656 196.875 42.4531C198.875 44.6406 199.875 47.7422 199.875 51.7578V54.5234H183.727C183.945 56.1797 184.602 57.5078 185.695 58.5078C186.805 59.5078 188.203 60.0078 189.891 60.0078C192.5 60.0078 194.539 59.0625 196.008 57.1719L199.336 60.8984C198.32 62.3359 196.945 63.4609 195.211 64.2734C193.477 65.0703 191.555 65.4688 189.445 65.4688ZM188.672 44.6562C187.328 44.6562 186.234 45.1094 185.391 46.0156C184.562 46.9219 184.031 48.2188 183.797 49.9062H193.219V49.3672C193.188 47.8672 192.781 46.7109 192 45.8984C191.219 45.0703 190.109 44.6562 188.672 44.6562ZM209.977 39.6406L210.188 42.5703C212 40.3047 214.43 39.1719 217.477 39.1719C220.164 39.1719 222.164 39.9609 223.477 41.5391C224.789 43.1172 225.461 45.4766 225.492 48.6172V65H218.719V48.7812C218.719 47.3438 218.406 46.3047 217.781 45.6641C217.156 45.0078 216.117 44.6797 214.664 44.6797C212.758 44.6797 211.328 45.4922 210.375 47.1172V65H203.602V39.6406H209.977ZM238.758 33.4062V39.6406H243.094V44.6094H238.758V57.2656C238.758 58.2031 238.938 58.875 239.297 59.2812C239.656 59.6875 240.344 59.8906 241.359 59.8906C242.109 59.8906 242.773 59.8359 243.352 59.7266V64.8594C242.023 65.2656 240.656 65.4688 239.25 65.4688C234.5 65.4688 232.078 63.0703 231.984 58.2734V44.6094H228.281V39.6406H231.984V33.4062H238.758ZM258.539 65.4688C254.82 65.4688 251.789 64.3281 249.445 62.0469C247.117 59.7656 245.953 56.7266 245.953 52.9297V52.2734C245.953 49.7266 246.445 47.4531 247.43 45.4531C248.414 43.4375 249.805 41.8906 251.602 40.8125C253.414 39.7188 255.477 39.1719 257.789 39.1719C261.258 39.1719 263.984 40.2656 265.969 42.4531C267.969 44.6406 268.969 47.7422 268.969 51.7578V54.5234H252.82C253.039 56.1797 253.695 57.5078 254.789 58.5078C255.898 59.5078 257.297 60.0078 258.984 60.0078C261.594 60.0078 263.633 59.0625 265.102 57.1719L268.43 60.8984C267.414 62.3359 266.039 63.4609 264.305 64.2734C262.57 65.0703 260.648 65.4688 258.539 65.4688ZM257.766 44.6562C256.422 44.6562 255.328 45.1094 254.484 46.0156C253.656 46.9219 253.125 48.2188 252.891 49.9062H262.312V49.3672C262.281 47.8672 261.875 46.7109 261.094 45.8984C260.312 45.0703 259.203 44.6562 257.766 44.6562Z" fill="white"/>
<path d="M33.0607 40.9393C32.4749 40.3536 31.5251 40.3536 30.9393 40.9393L21.3934 50.4853C20.8076 51.0711 20.8076 52.0208 21.3934 52.6066C21.9792 53.1924 22.9289 53.1924 23.5147 52.6066L32 44.1213L40.4853 52.6066C41.0711 53.1924 42.0208 53.1924 42.6066 52.6066C43.1924 52.0208 43.1924 51.0711 42.6066 50.4853L33.0607 40.9393ZM33.5 59V42H30.5V59H33.5Z" fill="white"/>
</svg>
